<svg xmlns="http://www.w3.org/2000/svg" width="112.85" height="88.75" viewBox="0 0 112.85 88.75">
  <metadata><?xpacket begin="﻿" id="W5M0MpCehiHzreSzNTczkc9d"?>
<x:xmpmeta xmlns:x="adobe:ns:meta/" x:xmptk="Adobe XMP Core 5.6-c138 79.159824, 2016/09/14-01:09:01        ">
   <rdf:RDF xmlns:rdf="http://www.w3.org/1999/02/22-rdf-syntax-ns#">
      <rdf:Description rdf:about=""/>
   </rdf:RDF>
</x:xmpmeta>
                                                                                                    
                                                                                                    
                                                                                                    
                                                                                                    
                                                                                                    
                                                                                                    
                                                                                                    
                                                                                                    
                                                                                                    
                                                                                                    
                                                                                                    
                                                                                                    
                                                                                                    
                                                                                                    
                                                                                                    
                                                                                                    
                                                                                                    
                                                                                                    
                                                                                                    
                                                                                                    
                           
<?xpacket end="w"?></metadata>
<defs>
    <style>
      .cls-1 {
        fill: #fff;
        fill-rule: evenodd;
      }
    </style>
  </defs>
  <path id="Photos_Icon" data-name="Photos Icon" class="cls-1" d="M1134,144h80v58h-80V144Zm2,2h76v54h-76V146Zm59.82,71.023-79.3-10.553,7.66-57.493,79.3,10.553Zm-77.05-12.272,75.34,10.026,7.12-53.528-75.34-10.026Zm31.56-8.018,79.03-10.814-7.69-57.652-79.03,10.814Zm76.79-12.532-75.08,10.274-7.16-53.676,75.08-10.274ZM1136,146h76v54h-76V146Zm68,46-22-22-8,8-5-5-10,10-3-3-12,12h60Zm-53-38a7,7,0,1,1-7,7A7,7,0,0,1,1151,154Z" transform="translate(-1116.53 -128.281)"/>
</svg>
